<svg width="112" height="112" viewBox="0 0 112 112" fill="none" xmlns="http://www.w3.org/2000/svg">
<circle opacity="0.1" cx="56" cy="56" r="56" fill="white"/>
<path d="M88.7813 49.2087H85.1357V46.8819C85.1357 42.5579 81.6202 39.0423 77.2962 39.0423H57.3057V32.6704C59.68 32.0967 61.4553 29.9664 61.4553 27.4176C61.4553 24.4314 59.0238 22 56.0376 22C53.0514 22 50.62 24.4314 50.62 27.4176C50.62 29.9663 52.3952 32.0966 54.7696 32.6704V39.0423H34.7791C30.4583 39.0423 26.9395 42.5578 26.9395 46.8819V49.2087H23.2813C20.3681 49.2087 18 51.5799 18 54.4932V66.5396C18 69.4624 20.3712 71.8431 23.2813 71.8431H26.9395V74.1604C26.9395 78.4844 30.4551 82 34.7791 82H77.2929C81.6137 82 85.1325 78.4844 85.1325 74.1604V71.8431H88.7781C91.704 71.8431 94.0816 69.4655 94.0816 66.5396V54.4932C94.0816 51.5799 91.704 49.2087 88.7781 49.2087H88.7813ZM53.159 27.4174C53.159 25.8292 54.4525 24.5358 56.0406 24.5358C57.6288 24.5358 58.9222 25.8292 58.9222 27.4174C58.9222 29.0056 57.6288 30.299 56.0406 30.299C54.4525 30.299 53.159 29.0056 53.159 27.4174ZM23.2849 69.3031C21.7696 69.3031 20.5396 68.0605 20.5396 66.5356V54.4892C20.5396 52.9739 21.7727 51.7408 23.2849 51.7408H26.9431V69.2999H23.2849V69.3031ZM47.4061 79.4602V68.9038H64.6861V79.4602H47.4061ZM82.5999 74.1567C82.5999 77.0795 80.2223 79.4602 77.2963 79.4602H67.2187V67.6362C67.2187 66.9356 66.6513 66.3682 65.9507 66.3682H46.1346C45.4341 66.3682 44.8666 66.9356 44.8666 67.6362V79.4602H34.7793C31.8564 79.4602 29.4757 77.0827 29.4757 74.1567V70.5904C29.4757 70.5841 29.4789 70.5777 29.4789 70.5714C29.4789 70.5651 29.4757 70.5587 29.4757 70.5524V50.4921C29.4757 50.4857 29.4789 50.4794 29.4789 50.4731C29.4789 50.4667 29.4757 50.4604 29.4757 50.454V46.8783C29.4757 43.9554 31.8533 41.5747 34.7793 41.5747H77.2931C80.2159 41.5747 82.5966 43.9523 82.5966 46.8783V74.1531L82.5999 74.1567ZM91.5486 66.5359C91.5486 68.0607 90.306 69.3034 88.7811 69.3034H85.1356V51.7442H88.7811C90.3059 51.7442 91.5486 52.9774 91.5486 54.4927V66.5391V66.5359Z" fill="white"/>
<path d="M44.34 47.9946C40.761 47.9946 37.8478 50.9079 37.8478 54.4869C37.8478 58.0659 40.761 60.9792 44.34 60.9792C47.9191 60.9792 50.8323 58.0659 50.8323 54.4869C50.8323 50.9047 47.9191 47.9946 44.34 47.9946ZM44.34 58.4431C42.159 58.4431 40.3838 56.6679 40.3838 54.4869C40.3838 52.3059 42.159 50.5307 44.34 50.5307C46.521 50.5307 48.2963 52.3059 48.2963 54.4869C48.2963 56.6679 46.521 58.4431 44.34 58.4431Z" fill="white"/>
<path d="M67.7479 47.9946C64.1689 47.9946 61.2556 50.9079 61.2556 54.4869C61.2556 58.0659 64.1689 60.9792 67.7479 60.9792C71.3269 60.9792 74.2401 58.0659 74.2401 54.4869C74.2401 50.9047 71.3269 47.9946 67.7479 47.9946ZM67.7479 58.4431C65.5669 58.4431 63.7917 56.6679 63.7917 54.4869C63.7917 52.3059 65.5669 50.5307 67.7479 50.5307C69.9289 50.5307 71.7041 52.3059 71.7041 54.4869C71.7041 56.6679 69.9289 58.4431 67.7479 58.4431Z" fill="white"/>
</svg>
