<svg width="112" height="112" viewBox="0 0 112 112" fill="none" xmlns="http://www.w3.org/2000/svg">
<circle opacity="0.1" cx="56" cy="56" r="56" fill="white"/>
<path d="M29.708 53.4804C44.244 47.1671 53.9213 42.9738 58.78 40.9391C72.6093 35.1658 75.516 34.1684 77.3853 34.1271C77.8 34.1271 78.7147 34.2111 79.3373 34.7098C79.836 35.1244 79.96 35.6631 80.0427 36.0791C80.1253 36.4951 80.2093 37.3671 80.1253 38.0311C79.3787 45.9218 76.14 65.0671 74.4787 73.8724C73.772 77.6084 72.4013 78.8551 71.072 78.9804C68.1653 79.2284 65.964 77.0698 63.1813 75.2418C58.78 72.3778 56.3293 70.5911 52.052 67.7671C47.1093 64.5271 50.308 62.7418 53.132 59.8338C53.8787 59.0871 66.6293 47.4591 66.8773 46.4204C66.92 46.2951 66.92 45.7978 66.6293 45.5484C66.3387 45.2991 65.9227 45.3831 65.5907 45.4658C65.1333 45.5484 58.156 50.2004 44.576 59.3778C42.5827 60.7484 40.7973 61.4124 39.1773 61.3711C37.392 61.3298 33.9867 60.3751 31.412 59.5444C28.296 58.5484 25.8053 58.0071 26.012 56.2631C26.1373 55.3498 27.3827 54.4364 29.708 53.4804Z" fill="white"/>
</svg>
