<svg width="104" height="104" viewBox="0 0 104 104" fill="none" xmlns="http://www.w3.org/2000/svg">
<g filter="url(#filter0_d_129_1458)">
<rect x="24" y="20" width="56" height="56" rx="28" fill="white" shape-rendering="crispEdges"/>
<path d="M54.6716 40.6617C54.2166 41.1167 54.2166 41.8517 54.6716 42.3067L59.1983 46.8333H41.4999C40.8583 46.8333 40.3333 47.3583 40.3333 48C40.3333 48.6417 40.8583 49.1667 41.4999 49.1667H59.2099L54.6833 53.6933C54.2283 54.1483 54.2283 54.8833 54.6833 55.3383C55.1383 55.7933 55.8733 55.7933 56.3283 55.3383L62.8499 48.8167C63.3049 48.3617 63.3049 47.6267 62.8499 47.1717L56.3166 40.6617C55.8733 40.2067 55.1266 40.2067 54.6716 40.6617Z" fill="#1C1E21"/>
</g>
<defs>
<filter id="filter0_d_129_1458" x="0" y="0" width="104" height="104" filterUnits="userSpaceOnUse" color-interpolation-filters="sRGB">
<feFlood flood-opacity="0" result="BackgroundImageFix"/>
<feColorMatrix in="SourceAlpha" type="matrix" values="0 0 0 0 0 0 0 0 0 0 0 0 0 0 0 0 0 0 127 0" result="hardAlpha"/>
<feOffset dy="4"/>
<feGaussianBlur stdDeviation="12"/>
<feComposite in2="hardAlpha" operator="out"/>
<feColorMatrix type="matrix" values="0 0 0 0 0 0 0 0 0 0 0 0 0 0 0 0 0 0 0.55 0"/>
<feBlend mode="normal" in2="BackgroundImageFix" result="effect1_dropShadow_129_1458"/>
<feBlend mode="normal" in="SourceGraphic" in2="effect1_dropShadow_129_1458" result="shape"/>
</filter>
</defs>
</svg>
