<svg width="104" height="104" viewBox="0 0 104 104" fill="none" xmlns="http://www.w3.org/2000/svg">
<g filter="url(#filter0_d_246_238)">
<rect x="24" y="20" width="56" height="56" rx="28" fill="white" shape-rendering="crispEdges"/>
<path d="M49.3167 55.35C49.7717 54.895 49.7717 54.16 49.3167 53.705L44.8017 49.1667H62.5C63.1417 49.1667 63.6667 48.6417 63.6667 48C63.6667 47.3583 63.1417 46.8333 62.5 46.8333H44.8017L49.3284 42.3067C49.7834 41.8517 49.7834 41.1167 49.3284 40.6617C48.8734 40.2067 48.1384 40.2067 47.6834 40.6617L41.15 47.1833C40.695 47.6383 40.695 48.3733 41.15 48.8283L47.6717 55.35C48.1267 55.7933 48.8734 55.7933 49.3167 55.35Z" fill="#1C1E21"/>
</g>
<defs>
<filter id="filter0_d_246_238" x="0" y="0" width="104" height="104" filterUnits="userSpaceOnUse" color-interpolation-filters="sRGB">
<feFlood flood-opacity="0" result="BackgroundImageFix"/>
<feColorMatrix in="SourceAlpha" type="matrix" values="0 0 0 0 0 0 0 0 0 0 0 0 0 0 0 0 0 0 127 0" result="hardAlpha"/>
<feOffset dy="4"/>
<feGaussianBlur stdDeviation="12"/>
<feComposite in2="hardAlpha" operator="out"/>
<feColorMatrix type="matrix" values="0 0 0 0 0 0 0 0 0 0 0 0 0 0 0 0 0 0 0.55 0"/>
<feBlend mode="normal" in2="BackgroundImageFix" result="effect1_dropShadow_246_238"/>
<feBlend mode="normal" in="SourceGraphic" in2="effect1_dropShadow_246_238" result="shape"/>
</filter>
</defs>
</svg>
