<svg width="17" height="16" viewBox="0 0 17 16" fill="none" xmlns="http://www.w3.org/2000/svg">
<path d="M7.3145 1.63335C7.7745 1.24002 8.52783 1.24002 8.9945 1.63335L10.0478 2.54001C10.2478 2.71335 10.6212 2.85335 10.8878 2.85335H12.0212C12.7278 2.85335 13.3078 3.43335 13.3078 4.14001V5.27335C13.3078 5.53335 13.4478 5.91335 13.6212 6.11335L14.5278 7.16668C14.9212 7.62668 14.9212 8.38002 14.5278 8.84668L13.6212 9.90001C13.4478 10.1 13.3078 10.4733 13.3078 10.74V11.8733C13.3078 12.58 12.7278 13.16 12.0212 13.16H10.8878C10.6278 13.16 10.2478 13.3 10.0478 13.4733L8.9945 14.38C8.5345 14.7733 7.78116 14.7733 7.3145 14.38L6.26116 13.4733C6.06116 13.3 5.68783 13.16 5.42116 13.16H4.26783C3.56116 13.16 2.98116 12.58 2.98116 11.8733V10.7333C2.98116 10.4733 2.84116 10.1 2.6745 9.90001L1.7745 8.84001C1.38783 8.38001 1.38783 7.63335 1.7745 7.17335L2.6745 6.11335C2.84116 5.91335 2.98116 5.54001 2.98116 5.28001V4.13335C2.98116 3.42668 3.56116 2.84668 4.26783 2.84668H5.42116C5.68116 2.84668 6.06116 2.70668 6.26116 2.53335L7.3145 1.63335Z" fill="#1B84FD"/>
<path d="M5.7345 7.99999L7.34116 9.61332L10.5612 6.38666" stroke="white" stroke-linecap="round" stroke-linejoin="round"/>
</svg>
